<?xml version="1.0" encoding="UTF-8" standalone="no"?>
<!-- Created with Inkscape (http://www.inkscape.org/) -->

<svg
   xmlns:dc="http://purl.org/dc/elements/1.1/"
   xmlns:cc="http://creativecommons.org/ns#"
   xmlns:rdf="http://www.w3.org/1999/02/22-rdf-syntax-ns#"
   xmlns:svg="http://www.w3.org/2000/svg"
   xmlns="http://www.w3.org/2000/svg"
   xmlns:sodipodi="http://sodipodi.sourceforge.net/DTD/sodipodi-0.dtd"
   xmlns:inkscape="http://www.inkscape.org/namespaces/inkscape"
   width="245.88609mm"
   height="108.51624mm"
   viewBox="0 0 245.88609 108.51624"
   version="1.1"
   id="svg3604"
   inkscape:version="0.92.5 (2060ec1f9f, 2020-04-08)"
   sodipodi:docname="AMAZON-GAMES-2025.svg">
  <defs
     id="defs3598" />
  <sodipodi:namedview
     id="base"
     pagecolor="#ffffff"
     bordercolor="#666666"
     borderopacity="1.0"
     inkscape:pageopacity="0.0"
     inkscape:pageshadow="2"
     inkscape:zoom="1.5677907"
     inkscape:cx="464.66662"
     inkscape:cy="205.07006"
     inkscape:document-units="mm"
     inkscape:current-layer="layer1"
     showgrid="false"
     inkscape:snap-global="false"
     inkscape:window-width="1920"
     inkscape:window-height="1009"
     inkscape:window-x="-8"
     inkscape:window-y="-8"
     inkscape:window-maximized="1" />
  <metadata
     id="metadata3601">
    <rdf:RDF>
      <cc:Work
         rdf:about="">
        <dc:format>image/svg+xml</dc:format>
        <dc:type
           rdf:resource="http://purl.org/dc/dcmitype/StillImage" />
        <dc:title></dc:title>
      </cc:Work>
    </rdf:RDF>
  </metadata>
  <g
     inkscape:label="Layer 1"
     inkscape:groupmode="layer"
     id="layer1"
     transform="translate(14.227249,-93.448256)">
    <path
       inkscape:connector-curvature="0"
       id="path4186"
       style="fill:#425A8B;fill-opacity:1;fill-rule:nonzero;stroke:none;stroke-width:0.96253085"
       d="m 2.4976739,93.448256 c 5.4517733,0 10.2567351,3.326501 12.3819951,8.316264 h 0.462022 L 16.54292,96.127934 C 16.82014,95.0191 17.28215,94.55709 18.113775,94.55709 h 7.854255 c 0.831625,0 1.478448,0.646823 1.478448,1.570844 v 42.967386 c 0,12.19719 -9.240296,20.79067 -21.8994999,20.79067 -8.3162643,0 -14.1376524,-2.58729 -18.5729991,-8.40867 -0.462021,-0.64682 -0.369603,-1.66327 0.277209,-2.21767 l 7.0226166,-5.08217 c 0.6468235,-0.46201 1.5708555,-0.27721 2.0328773,0.36961 2.5872825,3.60371 5.8213885,5.35937 9.7023064,5.35937 5.4517737,0 9.0554947,-4.15813 9.0554947,-10.44154 v -4.15812 h -0.554417 c -2.864491,5.08216 -6.6530138,7.39223 -12.0123921,7.39223 -10.0719212,0 -16.7249229,-9.70231 -16.7249229,-24.57919 0,-14.78448 6.6530017,-24.671584 16.7249229,-24.671584 z m 4.3429397,10.441534 c -5.174565,0 -8.131451,4.98975 -8.131451,14.23005 0,9.05549 2.956886,14.23006 8.131451,14.23006 5.4517734,0 8.4086714,-5.26697 8.4086714,-14.23006 0,-9.14789 -2.956898,-14.23005 -8.4086714,-14.23005 z" />
    <path
       inkscape:connector-curvature="0"
       id="path4194"
       style="fill:#425A8B;fill-opacity:1;fill-rule:nonzero;stroke:none;stroke-width:0.96253085"
       d="m 47.095124,144.36228 c -8.316265,0 -13.95284,-5.91378 -13.95284,-14.69207 0,-10.62634 8.316253,-17.27935 21.43749,-17.27935 2.310063,0 3.696117,0.0923 4.80495,0.36961 v -1.10883 c 0,-6.0986 -2.125272,-8.96309 -6.560607,-8.96309 -3.511314,0 -6.00619,2.03287 -6.930222,5.63658 -0.27722,1.10883 -0.924032,1.66325 -1.848075,1.47845 l -8.131451,-1.47845 c -1.108834,-0.1848 -1.570856,-0.92403 -1.293636,-2.03287 2.032866,-8.223856 8.963088,-12.844004 19.035009,-12.844004 11.919986,0 18.203385,6.560604 18.203385,18.850194 V 141.775 c 0,0.92403 -0.646824,1.57085 -1.478449,1.57085 h -7.669453 c -0.924032,0 -1.478448,-0.55441 -1.66325,-1.57085 l -1.201241,-5.45178 h -0.554416 c -2.217668,5.17457 -6.560607,8.03906 -12.197194,8.03906 z m 4.804961,-9.33269 c 4.897345,0 7.484639,-4.43535 7.484639,-12.6592 v -2.9569 c -0.924032,-0.18482 -1.94047,-0.27721 -3.049292,-0.27721 -6.375817,0 -10.349142,3.41891 -10.349142,9.05548 0,4.15814 2.310074,6.83783 5.913795,6.83783 z" />
    <path
       inkscape:connector-curvature="0"
       id="path4202"
       style="fill:#425A8B;fill-opacity:1;fill-rule:nonzero;stroke:none;stroke-width:0.96253085"
       d="m 103.50562,93.448256 c 5.72899,0 10.16433,3.141699 12.382,8.778274 h 0.46202 c 3.60371,-6.00619 7.85425,-8.778274 13.02882,-8.778274 8.77827,0 14.23006,7.392234 14.23006,19.312214 V 141.775 c 0,0.92403 -0.55443,1.57085 -1.57086,1.57085 h -9.3327 c -0.92403,0 -1.57086,-0.64682 -1.57086,-1.57085 v -28.09049 c 0,-5.63659 -2.21765,-8.77829 -6.37579,-8.77829 -4.62016,0 -7.02263,3.60372 -7.02263,10.44154 V 141.775 c 0,0.92403 -0.55442,1.57085 -1.57084,1.57085 h -9.33271 c -1.01642,0 -1.57085,-0.55441 -1.57085,-1.57085 v -28.09049 c 0,-5.63659 -2.21768,-8.77829 -6.375796,-8.77829 -4.62016,0 -7.02264,3.60372 -7.02264,10.44154 V 141.775 c 0,0.92403 -0.554406,1.57085 -1.570844,1.57085 h -9.332703 c -0.92402,0 -1.570844,-0.64682 -1.570844,-1.57085 V 96.035539 c 0,-0.924032 0.646824,-1.478449 1.570844,-1.478449 h 7.669452 c 0.924032,0 1.478437,0.554417 1.663251,1.478449 l 1.20124,5.821391 h 0.462022 c 2.125261,-5.451788 6.190992,-8.408674 11.550358,-8.408674 z" />
    <path
       inkscape:connector-curvature="0"
       id="path4210"
       style="fill:#425A8B;fill-opacity:1;fill-rule:nonzero;stroke:none;stroke-width:0.96253085"
       d="m 170.38294,93.448256 c 11.91999,0 20.14385,10.441534 20.14385,25.133604 v 2.40247 c 0,1.01644 -0.64682,1.57086 -1.47844,1.57086 h -26.88927 c 0.55441,7.94665 3.2341,12.01238 8.22386,12.01238 3.60371,0 6.46821,-1.66325 7.48464,-6.19099 0.1848,-1.01644 0.73923,-1.38605 1.66326,-1.20125 l 8.77828,1.94046 c 0.92403,0.18482 1.38605,0.83163 1.01643,1.84807 -2.95689,8.68588 -9.79471,13.39842 -18.94261,13.39842 -12.65921,0 -21.25269,-10.16432 -21.25269,-25.13361 0,-14.96927 8.7783,-25.780414 21.25269,-25.780414 z m 7.48464,20.883064 c -0.64682,-7.29983 -3.1417,-11.08835 -7.48464,-11.08835 -4.25053,0 -7.20743,3.97332 -8.13145,11.08835 z" />
    <path
       inkscape:connector-curvature="0"
       id="path4218"
       style="fill:#425A8B;fill-opacity:1;fill-rule:nonzero;stroke:none;stroke-width:0.96253085"
       d="m 194.23564,128.56138 c -0.0923,-0.83163 0.46203,-1.47845 1.29364,-1.66325 l 8.22387,-1.57086 c 0.92403,-0.1848 1.66326,0.36962 1.75566,1.29365 0.73923,5.26697 3.32651,7.94665 7.66945,7.94665 3.88092,0 6.37579,-1.94046 6.37579,-5.08216 0,-2.77209 -1.75565,-4.71256 -5.45176,-5.54418 l -5.8214,-1.38604 c -8.77827,-2.12528 -13.21361,-6.83782 -13.21361,-14.23006 0,-8.870684 7.20742,-14.876874 17.64896,-14.876874 9.51751,0 15.70851,4.435335 17.92617,12.936414 0.1848,0.73922 -0.3696,1.47845 -1.01642,1.57084 l -9.05549,1.57086 c -0.55443,0.0923 -1.20125,-0.27721 -1.29364,-0.92403 -0.73923,-3.60371 -2.9569,-5.35937 -6.56062,-5.35937 -3.2341,0 -5.54417,1.75566 -5.54417,4.34294 0,2.31007 1.84805,4.06573 5.45176,4.89736 l 6.0986,1.47844 c 8.7783,2.12526 12.93641,6.74541 12.93641,14.41487 0,9.24029 -7.76185,15.9857 -18.38819,15.9857 -10.71873,0 -18.01857,-6.19099 -19.03501,-15.8009 z" />
    <path
       style="fill:#425A8B;fill-opacity:1;fill-rule:nonzero;stroke:none;stroke-width:3.67860842"
       inkscape:connector-curvature="0"
       d="m 33.583211,162.51731 c -0.743563,0.58711 -0.900114,1.56523 -0.469619,2.93515 0.391326,1.21322 1.31099,2.71959 2.758958,4.51991 5.830856,7.20089 12.777167,13.18818 20.838851,17.96265 8.061661,4.77447 16.690958,8.29637 25.887473,10.56607 9.235522,2.30906 18.666746,3.46341 28.293666,3.46341 12.32737,0 24.06765,-1.79995 35.22084,-5.40057 11.15318,-3.56125 20.46702,-8.57042 27.94197,-15.02748 2.62174,-2.30871 3.93281,-4.14801 3.93281,-5.51791 0,-0.50875 -0.21519,-1.01753 -0.64559,-1.52626 -0.58711,-0.58673 -1.29158,-0.78244 -2.11338,-0.58673 -0.82181,0.19533 -1.97615,0.68459 -3.46342,1.46738 -7.1615,3.75698 -15.88826,6.75061 -26.18066,8.98134 -10.25303,2.26969 -20.95627,3.40453 -32.10948,3.40453 -13.814255,0 -27.159162,-1.87829 -40.034287,-5.63526 -12.875137,-3.75694 -24.282861,-9.6269 -34.222846,-17.61023 -1.447887,-1.13485 -2.622096,-1.85915 -3.522083,-2.17221 -0.860933,-0.31304 -1.565361,-0.25418 -2.113203,0.17621 z"
       id="Path" />
    <path
       style="fill:#425A8B;fill-opacity:1;fill-rule:nonzero;stroke:none;stroke-width:3.67860842"
       inkscape:connector-curvature="0"
       d="m 164.01495,165.45576 c -0.82179,0.78283 -1.03701,1.60463 -0.64559,2.46579 0.27405,0.6261 0.80231,0.97814 1.58512,1.05649 0.78245,0.11739 1.8978,0.039 3.34569,-0.2347 2.34805,-0.50875 4.79395,-0.86116 7.33771,-1.05686 2.54376,-0.15631 4.75499,-0.1174 6.63329,0.11738 1.87865,0.27406 3.05251,0.74382 3.52228,1.40892 0.70445,1.05687 0.44989,3.28719 -0.76332,6.69213 -1.17384,3.40454 -2.77849,6.71125 -4.81347,9.92046 -0.78282,1.2912 -1.2522,2.30869 -1.4089,3.05251 -0.15631,0.74344 0.0394,1.36954 0.58708,1.87828 0.35204,0.35205 0.74347,0.52826 1.17385,0.52826 1.13523,0 2.77883,-0.99801 4.93116,-2.99363 3.87433,-3.36558 6.59392,-7.35722 8.15955,-11.975 0.86078,-2.38741 1.38903,-4.89182 1.58473,-7.51392 0.19572,-2.62174 -0.0979,-4.50041 -0.88064,-5.63527 -0.74347,-1.09585 -2.38705,-1.996 -4.93081,-2.70009 -2.5044,-0.70444 -5.02866,-1.05687 -7.57243,-1.05687 -4.97016,0 -9.68578,1.17421 -14.14683,3.52227 -1.64358,0.90015 -2.87628,1.74145 -3.69847,2.52389 z"
       id="path6" />
  </g>
</svg>
